<svg width="27" height="12" viewBox="0 0 27 12" fill="none" xmlns="http://www.w3.org/2000/svg">
<path d="M4.99229 1.44499C5.30328 1.05601 5.51432 0.533719 5.45866 0C5.00341 0.0226369 4.44787 0.300343 4.12624 0.689632C3.83745 1.023 3.58184 1.56716 3.64848 2.0785C4.15952 2.12283 4.67008 1.82306 4.99229 1.44499Z" fill="#000008"/>
<path d="M5.45287 2.17835C4.71072 2.13414 4.07971 2.59956 3.72529 2.59956C3.37068 2.59956 2.82796 2.20063 2.24095 2.21138C1.47693 2.2226 0.76801 2.65458 0.380302 3.34164C-0.417147 4.71609 0.169856 6.75489 0.945333 7.8743C1.32192 8.42811 1.77578 9.0379 2.3738 9.016C2.93883 8.99382 3.1603 8.65013 3.84712 8.65013C4.53343 8.65013 4.73293 9.016 5.33105 9.00491C5.95131 8.99382 6.33909 8.45083 6.71568 7.89648C7.14769 7.26516 7.32455 6.65558 7.33567 6.62211C7.32454 6.61103 6.13962 6.15646 6.12864 4.79343C6.11745 3.65215 7.05893 3.10929 7.10324 3.07562C6.57158 2.28929 5.74087 2.20063 5.45287 2.17835Z" fill="#000008"/>
<path d="M11.9149 0.633805C13.528 0.633805 14.6512 1.7457 14.6512 3.36454C14.6512 4.98915 13.5049 6.10682 11.8745 6.10682H10.0885V8.94701H8.79817V0.633803L11.9149 0.633805ZM10.0885 5.02371H11.5691C12.6926 5.02371 13.332 4.41887 13.332 3.37031C13.332 2.32187 12.6926 1.7227 11.5749 1.7227H10.0885V5.02371Z" fill="#000008"/>
<path d="M14.9883 7.22448C14.9883 6.16437 15.8006 5.51341 17.241 5.43274L18.9001 5.33484V4.86823C18.9001 4.19416 18.4449 3.7909 17.6846 3.7909C16.9643 3.7909 16.5149 4.13649 16.4056 4.6781H15.2304C15.2995 3.58343 16.2327 2.7769 17.7306 2.7769C19.1997 2.7769 20.1386 3.55465 20.1386 4.77022V8.94699H18.9461V7.95033H18.9174C18.566 8.6244 17.7997 9.05067 17.0048 9.05067C15.818 9.05067 14.9883 8.31326 14.9883 7.22448ZM18.9001 6.6772V6.19904L17.4079 6.29116C16.6647 6.34306 16.2442 6.67142 16.2442 7.18992C16.2442 7.71987 16.6821 8.06557 17.3504 8.06557C18.2202 8.06557 18.9001 7.46639 18.9001 6.6772Z" fill="#000008"/>
<path d="M21.2645 11.1766V10.1683C21.3566 10.1913 21.5639 10.1913 21.6677 10.1913C22.2438 10.1913 22.5549 9.94943 22.7449 9.32726C22.7449 9.3157 22.8545 8.95855 22.8545 8.95277L20.6654 2.88636H22.0133L23.5459 7.81787H23.5688L25.1014 2.88636H26.4149L24.1448 9.2638C23.6266 10.733 23.0274 11.2053 21.7715 11.2053C21.6677 11.2053 21.3566 11.1938 21.2645 11.1766Z" fill="#000008"/>
</svg>
