<svg width="13" height="10" viewBox="0 0 13 10" fill="none" xmlns="http://www.w3.org/2000/svg">
<path d="M12.7826 1.2813L4.78255 9.2813C4.71287 9.35122 4.63008 9.4067 4.53891 9.44455C4.44775 9.48241 4.35001 9.50189 4.2513 9.50189C4.15259 9.50189 4.05485 9.48241 3.96369 9.44455C3.87252 9.4067 3.78973 9.35122 3.72005 9.2813L0.220051 5.7813C0.150286 5.71154 0.0949458 5.62871 0.0571893 5.53756C0.0194329 5.44641 1.03958e-09 5.34871 0 5.25005C-1.03958e-09 5.15139 0.0194329 5.05369 0.0571893 4.96254C0.0949458 4.87139 0.150286 4.78857 0.220051 4.7188C0.289816 4.64904 0.372638 4.5937 0.46379 4.55594C0.554942 4.51818 0.652639 4.49875 0.751301 4.49875C0.849963 4.49875 0.947659 4.51818 1.03881 4.55594C1.12996 4.5937 1.21279 4.64904 1.28255 4.7188L4.25193 7.68818L11.7213 0.220051C11.8622 0.0791546 12.0533 0 12.2526 0C12.4518 0 12.6429 0.0791546 12.7838 0.220051C12.9247 0.360947 13.0039 0.552044 13.0039 0.751301C13.0039 0.950558 12.9247 1.14165 12.7838 1.28255L12.7826 1.2813Z" fill="white"/>
</svg>
