<svg width="21" height="16" viewBox="0 0 21 16" fill="none" xmlns="http://www.w3.org/2000/svg">
<path d="M19.125 0H1.125C0.826631 0 0.540483 0.118526 0.329505 0.329505C0.118526 0.540483 0 0.826631 0 1.125V13.875C0 14.3723 0.197544 14.8492 0.549175 15.2008C0.900805 15.5525 1.37772 15.75 1.875 15.75H18.375C18.8723 15.75 19.3492 15.5525 19.7008 15.2008C20.0525 14.8492 20.25 14.3723 20.25 13.875V1.125C20.25 0.826631 20.1315 0.540483 19.9205 0.329505C19.7095 0.118526 19.4234 0 19.125 0ZM10.125 7.84875L4.01719 2.25H16.2328L10.125 7.84875ZM6.82406 7.875L2.25 12.0675V3.6825L6.82406 7.875ZM8.48906 9.40125L9.36469 10.2047C9.57219 10.395 9.84348 10.5005 10.125 10.5005C10.4065 10.5005 10.6778 10.395 10.8853 10.2047L11.7609 9.40125L16.2328 13.5H4.01719L8.48906 9.40125ZM13.4259 7.875L18 3.6825V12.0675L13.4259 7.875Z" fill="black" fill-opacity="0.4"/>
</svg>
