<svg width="35" height="32" viewBox="0 0 35 32" fill="none" xmlns="http://www.w3.org/2000/svg">
<path d="M31.4824 1H24.8291L25.6624 9.33333C25.6624 9.33333 27.3291 11 29.8291 11C31.1414 11.0017 32.4092 10.524 33.3941 9.65667C33.4982 9.55938 33.5758 9.43716 33.6195 9.30156C33.6633 9.16596 33.6717 9.02145 33.6441 8.88167L32.4674 1.83333C32.4281 1.60049 32.3076 1.38909 32.1273 1.23656C31.947 1.08404 31.7186 1.00024 31.4824 1V1Z" stroke="white" stroke-width="2"/>
<path d="M24.8291 1L25.6624 9.33333C25.6624 9.33333 23.9958 11 21.4958 11C18.9958 11 17.3291 9.33333 17.3291 9.33333V1H24.8291Z" stroke="#FAFAFA" stroke-width="2"/>
<path d="M17.3294 1V9.33333C17.3294 9.33333 15.6628 11 13.1628 11C10.6628 11 8.99609 9.33333 8.99609 9.33333L9.82943 1H17.3294Z" stroke="#FAFAFA" stroke-width="2"/>
<path d="M9.82909 1H3.17742C2.94075 0.999912 2.71171 1.08377 2.53105 1.23666C2.35039 1.38955 2.22981 1.60157 2.19076 1.835L1.01576 8.88333C0.988295 9.02311 0.996832 9.16758 1.04057 9.30315C1.0843 9.43873 1.16179 9.56095 1.26576 9.65833C1.81242 10.1417 3.03409 11.0017 4.82909 11.0017C7.32909 11.0017 8.99576 9.335 8.99576 9.335L9.82909 1.00167V1Z" stroke="#FAFAFA" stroke-width="2"/>
<path d="M2.34082 11V27.6667C2.34082 28.5507 2.69201 29.3986 3.31713 30.0237C3.94225 30.6488 4.7901 31 5.67415 31H29.0075C29.8915 31 30.7394 30.6488 31.3645 30.0237C31.9896 29.3986 32.3408 28.5507 32.3408 27.6667V11" stroke="#FAFAFA" stroke-width="2"/>
<path d="M22.0625 31V21C22.0625 20.1159 21.7113 19.2681 21.0862 18.6429C20.4611 18.0178 19.6132 17.6666 18.7292 17.6666H15.3958C14.5118 17.6666 13.6639 18.0178 13.0388 18.6429C12.4137 19.2681 12.0625 20.1159 12.0625 21V31" stroke="#FAFAFA" stroke-width="2" stroke-miterlimit="16"/>
</svg>
