<svg width="20" height="20" viewBox="0 0 20 20" fill="none" xmlns="http://www.w3.org/2000/svg">
<path d="M14.75 0.75H4.75C3.68913 0.75 2.67172 1.17143 1.92157 1.92157C1.17143 2.67172 0.75 3.68913 0.75 4.75V14.75C0.75 15.8109 1.17143 16.8283 1.92157 17.5784C2.67172 18.3286 3.68913 18.75 4.75 18.75H14.75C15.8109 18.75 16.8283 18.3286 17.5784 17.5784C18.3286 16.8283 18.75 15.8109 18.75 14.75V4.75C18.75 3.68913 18.3286 2.67172 17.5784 1.92157C16.8283 1.17143 15.8109 0.75 14.75 0.75Z" stroke="black" stroke-width="1.5" stroke-linejoin="round"/>
<path d="M9.75 13.75C10.8109 13.75 11.8283 13.3286 12.5784 12.5784C13.3286 11.8283 13.75 10.8109 13.75 9.75C13.75 8.68913 13.3286 7.67172 12.5784 6.92157C11.8283 6.17143 10.8109 5.75 9.75 5.75C8.68913 5.75 7.67172 6.17143 6.92157 6.92157C6.17143 7.67172 5.75 8.68913 5.75 9.75C5.75 10.8109 6.17143 11.8283 6.92157 12.5784C7.67172 13.3286 8.68913 13.75 9.75 13.75V13.75Z" stroke="black" stroke-width="1.5" stroke-linejoin="round"/>
<path d="M15.25 5.25C15.5152 5.25 15.7696 5.14464 15.9571 4.95711C16.1446 4.76957 16.25 4.51522 16.25 4.25C16.25 3.98478 16.1446 3.73043 15.9571 3.54289C15.7696 3.35536 15.5152 3.25 15.25 3.25C14.9848 3.25 14.7304 3.35536 14.5429 3.54289C14.3554 3.73043 14.25 3.98478 14.25 4.25C14.25 4.51522 14.3554 4.76957 14.5429 4.95711C14.7304 5.14464 14.9848 5.25 15.25 5.25Z" fill="black"/>
</svg>
