<svg width="26" height="16" viewBox="0 0 26 16" fill="none" xmlns="http://www.w3.org/2000/svg">
<path d="M16.1226 1.677H9.25929V14.0105H16.1226V1.677Z" fill="#FF5F00"/>
<path d="M9.69511 7.84375C9.69403 6.65594 9.96319 5.48346 10.4822 4.41506C11.0013 3.34665 11.7566 2.41034 12.691 1.677C11.5338 0.767478 10.1442 0.201863 8.68081 0.0447978C7.21744 -0.112267 5.7394 0.14555 4.41563 0.788793C3.09185 1.43204 1.97576 2.43475 1.19492 3.68232C0.414079 4.92988 0 6.37197 0 7.84375C0 9.31553 0.414079 10.7576 1.19492 12.0052C1.97576 13.2527 3.09185 14.2555 4.41563 14.8987C5.7394 15.542 7.21744 15.7998 8.68081 15.6427C10.1442 15.4856 11.5338 14.92 12.691 14.0105C11.7566 13.2772 11.0013 12.3408 10.4822 11.2724C9.9632 10.204 9.69404 9.03155 9.69511 7.84375Z" fill="#EB001B"/>
<path d="M25.3815 7.84375C25.3816 9.31551 24.9676 10.7576 24.1868 12.0052C23.406 13.2527 22.2899 14.2554 20.9662 14.8987C19.6424 15.5419 18.1644 15.7998 16.701 15.6427C15.2377 15.4856 13.848 14.92 12.691 14.0105C13.6245 13.2764 14.3792 12.34 14.8982 11.2717C15.4171 10.2035 15.6868 9.03137 15.6868 7.84375C15.6868 6.65613 15.4171 5.48401 14.8982 4.41578C14.3792 3.34755 13.6245 2.41108 12.691 1.677C13.848 0.767477 15.2377 0.201859 16.701 0.0447958C18.1644 -0.112267 19.6424 0.145561 20.9662 0.788811C22.2899 1.43206 23.406 2.43477 24.1868 3.68234C24.9676 4.92991 25.3816 6.37199 25.3815 7.84375Z" fill="#F79E1B"/>
<path d="M24.6332 12.7042V12.4517H24.735V12.4002H24.4757V12.4517H24.5776V12.7042H24.6332ZM25.1366 12.7042V12.3998H25.0571L24.9657 12.6092L24.8743 12.3998H24.7947V12.7042H24.8509V12.4745L24.9366 12.6725H24.9948L25.0805 12.474V12.7042H25.1366Z" fill="#F79E1B"/>
</svg>
