<svg width="35" height="10" viewBox="0 0 35 10" fill="none" xmlns="http://www.w3.org/2000/svg">
<path fill-rule="evenodd" clip-rule="evenodd" d="M4.14627 0.000976297H1.45878C1.27487 0.000976297 1.11846 0.134622 1.08978 0.316091L0.00281925 7.20683C-0.018785 7.34284 0.0865276 7.4654 0.224464 7.4654H1.5075C1.69141 7.4654 1.84782 7.33175 1.8765 7.14992L2.16966 5.2914C2.19794 5.10939 2.35474 4.97592 2.53826 4.97592H3.38903C5.15938 4.97592 6.18104 4.11931 6.448 2.4219C6.5682 1.67929 6.45309 1.09579 6.1052 0.687029C5.72331 0.238448 5.04572 0.000976297 4.14627 0.000976297ZM4.45633 2.51772C4.30939 3.48198 3.57256 3.48198 2.86011 3.48198H2.45456L2.73907 1.68111C2.75596 1.57238 2.85027 1.49219 2.96031 1.49219H3.14618C3.6315 1.49219 4.08935 1.49219 4.32594 1.76875C4.46688 1.93386 4.51016 2.17897 4.45633 2.51772ZM12.1799 2.48681H10.8929C10.7832 2.48681 10.6885 2.567 10.6716 2.67592L10.6146 3.03577L10.5246 2.90539C10.246 2.50099 9.62481 2.36589 9.00468 2.36589C7.5824 2.36589 6.3678 3.44289 6.13121 4.95374C6.00827 5.70725 6.18304 6.42786 6.61058 6.93044C7.00283 7.39248 7.56404 7.58504 8.23162 7.58504C9.37748 7.58504 10.0131 6.84825 10.0131 6.84825L9.9556 7.20592C9.93396 7.34266 10.0392 7.46522 10.1764 7.46522H11.3357C11.5201 7.46522 11.6756 7.33157 11.7047 7.14973L12.4003 2.74538C12.4223 2.60991 12.3173 2.48681 12.1799 2.48681ZM10.3859 4.99137C10.2617 5.72652 9.67809 6.22003 8.93394 6.22003C8.56023 6.22003 8.26145 6.10019 8.06977 5.87309C7.87955 5.64761 7.80717 5.3265 7.86773 4.96901C7.98375 4.24005 8.57714 3.73055 9.31002 3.73055C9.67536 3.73055 9.97251 3.85183 10.1682 4.08094C10.3642 4.31241 10.4421 4.63535 10.3859 4.99137ZM17.7408 2.48663H19.0341C19.2152 2.48663 19.3209 2.68974 19.218 2.8383L14.9166 9.04643C14.8469 9.14698 14.7322 9.20681 14.6096 9.20681H13.3179C13.136 9.20681 13.0298 9.00206 13.1351 8.85314L14.4745 6.96281L13.05 2.78283C13.0007 2.63755 13.108 2.48663 13.2626 2.48663H14.5334C14.6985 2.48663 14.8442 2.595 14.8918 2.75302L15.6478 5.27758L17.4316 2.65046C17.5014 2.54791 17.6175 2.48663 17.7408 2.48663Z" fill="#253B80"/>
<path fill-rule="evenodd" clip-rule="evenodd" d="M31.7633 7.20621L32.8663 0.189468C32.8832 0.0805504 32.9776 0.000363666 33.0872 0H34.3289C34.466 0 34.5713 0.122918 34.5497 0.258929L33.462 7.1493C33.4337 7.33113 33.2773 7.46478 33.093 7.46478H31.9841C31.847 7.46478 31.7417 7.34223 31.7633 7.20621ZM23.3164 0.000360768H20.6284C20.4449 0.000360768 20.2885 0.134008 20.2598 0.315477L19.1728 7.20621C19.1512 7.34223 19.2565 7.46478 19.3938 7.46478H20.773C20.9012 7.46478 21.0108 7.37132 21.0308 7.24404L21.3393 5.29079C21.3676 5.10877 21.5244 4.97531 21.7079 4.97531H22.5582C24.329 4.97531 25.3504 4.11869 25.6176 2.42128C25.7381 1.67868 25.6223 1.09518 25.2746 0.686417C24.8929 0.237835 24.2158 0.000360768 23.3164 0.000360768ZM23.6264 2.51711C23.4799 3.48137 22.743 3.48137 22.0301 3.48137H21.625L21.9099 1.6805C21.9268 1.57176 22.0203 1.49157 22.1307 1.49157H22.3166C22.8016 1.49157 23.2598 1.49157 23.4962 1.76814C23.6374 1.93324 23.6803 2.17836 23.6264 2.51711ZM31.3492 2.4862H30.0632C29.9526 2.4862 29.8588 2.56639 29.8422 2.6753L29.7853 3.03515L29.6949 2.90478C29.4163 2.50038 28.7955 2.36528 28.1753 2.36528C26.7531 2.36528 25.5388 3.44228 25.3022 4.95313C25.1797 5.70664 25.3537 6.42724 25.7812 6.92983C26.1742 7.39187 26.7347 7.58443 27.4023 7.58443C28.5481 7.58443 29.1835 6.84764 29.1835 6.84764L29.1263 7.20531C29.1046 7.34205 29.2099 7.4646 29.3479 7.4646H30.5067C30.6902 7.4646 30.8466 7.33095 30.8753 7.14912L31.5713 2.74477C31.5926 2.6093 31.4873 2.4862 31.3492 2.4862ZM29.5554 4.99076C29.432 5.72591 28.8477 6.21941 28.1033 6.21941C27.7304 6.21941 27.431 6.09958 27.2392 5.87247C27.0489 5.647 26.9775 5.32589 27.0373 4.9684C27.1539 4.23943 27.7465 3.72994 28.4794 3.72994C28.8449 3.72994 29.1419 3.85122 29.3378 4.08033C29.5345 4.3118 29.6124 4.63473 29.5554 4.99076Z" fill="#179BD7"/>
</svg>
