<svg width="27" height="34" viewBox="0 0 27 34" fill="none" xmlns="http://www.w3.org/2000/svg">
<path d="M5 8.33322V4.99989C5.00002 4.03469 5.27941 3.09012 5.80444 2.28021C6.32947 1.4703 7.0777 0.829658 7.95881 0.435625C8.83992 0.0415929 9.81625 -0.0889902 10.7699 0.0596387C11.7236 0.208268 12.6139 0.629755 13.3333 1.27322C14.0528 0.629755 14.943 0.208268 15.8967 0.0596387C16.8504 -0.0889902 17.8267 0.0415929 18.7079 0.435625C19.589 0.829658 20.3372 1.4703 20.8622 2.28021C21.3873 3.09012 21.6666 4.03469 21.6667 4.99989V8.33322H24.1667C24.8297 8.33322 25.4656 8.59662 25.9344 9.06546C26.4033 9.5343 26.6667 10.1702 26.6667 10.8332V27.5082C26.6667 29.0531 26.053 30.5347 24.9606 31.6271C23.8682 32.7195 22.3866 33.3332 20.8417 33.3332H6.66667C4.89856 33.3332 3.20286 32.6308 1.95262 31.3806C0.702379 30.1304 0 28.4347 0 26.6666V10.8332C0 10.1702 0.263392 9.5343 0.732233 9.06546C1.20107 8.59662 1.83696 8.33322 2.5 8.33322H5ZM16.0583 30.8332C15.3784 29.8579 15.0148 28.6971 15.0167 27.5082V10.8332H2.5V26.6666C2.5 27.2137 2.60777 27.7556 2.81717 28.2611C3.02656 28.7666 3.33348 29.2259 3.72039 29.6128C4.1073 29.9997 4.56663 30.3067 5.07215 30.5161C5.57768 30.7255 6.11949 30.8332 6.66667 30.8332H16.0583ZM12.5 8.33322V4.99989C12.5 4.33685 12.2366 3.70096 11.7678 3.23212C11.2989 2.76328 10.663 2.49989 10 2.49989C9.33696 2.49989 8.70107 2.76328 8.23223 3.23212C7.76339 3.70096 7.5 4.33685 7.5 4.99989V8.33322H12.5ZM15 8.33322H19.1667V4.99989C19.1667 4.48528 19.008 3.98319 18.7121 3.56216C18.4162 3.14113 17.9975 2.82167 17.5133 2.64739C17.0291 2.47311 16.503 2.45249 16.0066 2.58836C15.5103 2.72423 15.0679 3.00996 14.74 3.40656C14.9083 3.90656 15 4.44322 15 4.99989V8.33322ZM17.5167 27.5082C17.5167 28.3901 17.867 29.2358 18.4905 29.8594C19.1141 30.4829 19.9598 30.8332 20.8417 30.8332C21.7235 30.8332 22.5692 30.4829 23.1928 29.8594C23.8164 29.2358 24.1667 28.3901 24.1667 27.5082V10.8332H17.5167V27.5082Z" fill="white"/>
</svg>
