<svg width="32" height="36" viewBox="0 0 32 36" fill="none" xmlns="http://www.w3.org/2000/svg">
<path d="M15.5664 0.5C16.5879 0.5 17.5874 0.649232 18.3408 0.930664L26.6582 4.04785H26.6592C28.8787 4.87462 30.6338 7.42021 30.6338 9.7793V22.1621C30.6338 23.2493 30.2896 24.5021 29.707 25.6611C29.161 26.7474 28.4236 27.715 27.6143 28.3682L27.4512 28.4951L20.2842 33.8447L20.2783 33.8496C18.9956 34.8387 17.307 35.3457 15.583 35.3457C13.8603 35.3456 12.1679 34.8389 10.8477 33.8604H10.8467L3.68262 28.5117C2.80991 27.861 2.00857 26.8334 1.42578 25.6719C0.842937 24.5102 0.5 23.2573 0.5 22.1787V9.7793C0.5 7.42009 2.25494 4.87449 4.47461 4.04785H4.47559L12.792 0.930664C13.5454 0.649146 14.5448 0.500025 15.5664 0.5ZM15.584 1.99805C14.7854 2.00023 13.9585 2.10747 13.3252 2.34375L13.3242 2.34473L5.00781 5.46094H5.00684C4.17933 5.77253 3.4381 6.43505 2.90723 7.20312C2.37615 7.97151 2.0166 8.90243 2.0166 9.7959V22.1787C2.0166 23.0732 2.32718 24.1019 2.78418 25.0137C3.24106 25.9252 3.87642 26.7852 4.58398 27.3135L11.751 32.6631C12.8128 33.457 14.2114 33.8378 15.585 33.8379C16.9589 33.8379 18.3612 33.4568 19.4307 32.6641L19.4326 32.6631L26.5986 27.3135L26.5996 27.3125C27.3144 26.7764 27.9499 25.9175 28.4053 25.0068C28.8606 24.0962 29.167 23.0722 29.167 22.1787V9.7793C29.167 8.89326 28.8066 7.96646 28.2764 7.19922C27.7459 6.43167 27.0053 5.76646 26.1807 5.44629L26.1758 5.44434L17.8584 2.32715L17.8496 2.32422C17.2115 2.09902 16.3834 1.99587 15.584 1.99805Z" fill="#FAFAFA" stroke="#FAFAFA"/>
</svg>
