<svg width="21" height="19" viewBox="0 0 21 19" fill="none" xmlns="http://www.w3.org/2000/svg">
<path d="M11.25 9V17.625C11.25 17.9234 11.1315 18.2095 10.9205 18.4205C10.7095 18.6315 10.4234 18.75 10.125 18.75C9.82663 18.75 9.54048 18.6315 9.3295 18.4205C9.11853 18.2095 9 17.9234 9 17.625V9C9 8.70163 9.11853 8.41548 9.3295 8.2045C9.54048 7.99353 9.82663 7.875 10.125 7.875C10.4234 7.875 10.7095 7.99353 10.9205 8.2045C11.1315 8.41548 11.25 8.70163 11.25 9ZM16.875 15.375C16.5766 15.375 16.2905 15.4935 16.0795 15.7045C15.8685 15.9155 15.75 16.2016 15.75 16.5V17.625C15.75 17.9234 15.8685 18.2095 16.0795 18.4205C16.2905 18.6315 16.5766 18.75 16.875 18.75C17.1734 18.75 17.4595 18.6315 17.6705 18.4205C17.8815 18.2095 18 17.9234 18 17.625V16.5C18 16.2016 17.8815 15.9155 17.6705 15.7045C17.4595 15.4935 17.1734 15.375 16.875 15.375ZM19.125 11.625H18V1.125C18 0.826631 17.8815 0.540483 17.6705 0.329505C17.4595 0.118526 17.1734 0 16.875 0C16.5766 0 16.2905 0.118526 16.0795 0.329505C15.8685 0.540483 15.75 0.826631 15.75 1.125V11.625H14.625C14.3266 11.625 14.0405 11.7435 13.8295 11.9545C13.6185 12.1655 13.5 12.4516 13.5 12.75C13.5 13.0484 13.6185 13.3345 13.8295 13.5455C14.0405 13.7565 14.3266 13.875 14.625 13.875H19.125C19.4234 13.875 19.7095 13.7565 19.9205 13.5455C20.1315 13.3345 20.25 13.0484 20.25 12.75C20.25 12.4516 20.1315 12.1655 19.9205 11.9545C19.7095 11.7435 19.4234 11.625 19.125 11.625ZM3.375 12.375C3.07663 12.375 2.79048 12.4935 2.5795 12.7045C2.36853 12.9155 2.25 13.2016 2.25 13.5V17.625C2.25 17.9234 2.36853 18.2095 2.5795 18.4205C2.79048 18.6315 3.07663 18.75 3.375 18.75C3.67337 18.75 3.95952 18.6315 4.1705 18.4205C4.38147 18.2095 4.5 17.9234 4.5 17.625V13.5C4.5 13.2016 4.38147 12.9155 4.1705 12.7045C3.95952 12.4935 3.67337 12.375 3.375 12.375ZM5.625 8.625H4.5V1.125C4.5 0.826631 4.38147 0.540483 4.1705 0.329505C3.95952 0.118526 3.67337 0 3.375 0C3.07663 0 2.79048 0.118526 2.5795 0.329505C2.36853 0.540483 2.25 0.826631 2.25 1.125V8.625H1.125C0.826631 8.625 0.540483 8.74353 0.329505 8.9545C0.118526 9.16548 0 9.45163 0 9.75C0 10.0484 0.118526 10.3345 0.329505 10.5455C0.540483 10.7565 0.826631 10.875 1.125 10.875H5.625C5.92337 10.875 6.20952 10.7565 6.4205 10.5455C6.63147 10.3345 6.75 10.0484 6.75 9.75C6.75 9.45163 6.63147 9.16548 6.4205 8.9545C6.20952 8.74353 5.92337 8.625 5.625 8.625ZM12.375 4.125H11.25V1.125C11.25 0.826631 11.1315 0.540483 10.9205 0.329505C10.7095 0.118526 10.4234 0 10.125 0C9.82663 0 9.54048 0.118526 9.3295 0.329505C9.11853 0.540483 9 0.826631 9 1.125V4.125H7.875C7.57663 4.125 7.29048 4.24353 7.0795 4.4545C6.86853 4.66548 6.75 4.95163 6.75 5.25C6.75 5.54837 6.86853 5.83452 7.0795 6.0455C7.29048 6.25647 7.57663 6.375 7.875 6.375H12.375C12.6734 6.375 12.9595 6.25647 13.1705 6.0455C13.3815 5.83452 13.5 5.54837 13.5 5.25C13.5 4.95163 13.3815 4.66548 13.1705 4.4545C12.9595 4.24353 12.6734 4.125 12.375 4.125Z" fill="black" fill-opacity="0.4"/>
</svg>
