<svg width="21" height="21" viewBox="0 0 21 21" fill="none" xmlns="http://www.w3.org/2000/svg">
<path d="M10.125 0C8.12247 0 6.1649 0.593821 4.49986 1.70637C2.83481 2.81892 1.53706 4.40023 0.770724 6.25033C0.00438702 8.10043 -0.196122 10.1362 0.194554 12.1003C0.585229 14.0643 1.54954 15.8685 2.96555 17.2845C4.38156 18.7005 6.18566 19.6648 8.14971 20.0555C10.1138 20.4461 12.1496 20.2456 13.9997 19.4793C15.8498 18.7129 17.4311 17.4152 18.5436 15.7501C19.6562 14.0851 20.25 12.1275 20.25 10.125C20.247 7.4406 19.1793 4.86699 17.2812 2.96883C15.383 1.07067 12.8094 0.00297771 10.125 0ZM5.58469 16.5534C6.10695 15.8393 6.79028 15.2585 7.57918 14.8581C8.36808 14.4577 9.24031 14.249 10.125 14.249C11.0097 14.249 11.8819 14.4577 12.6708 14.8581C13.4597 15.2585 14.1431 15.8393 14.6653 16.5534C13.3384 17.4945 11.7518 18 10.125 18C8.49823 18 6.91165 17.4945 5.58469 16.5534ZM7.5 9.375C7.5 8.85582 7.65396 8.34831 7.9424 7.91663C8.23083 7.48495 8.6408 7.1485 9.12046 6.94982C9.60012 6.75114 10.1279 6.69915 10.6371 6.80044C11.1463 6.90172 11.614 7.15173 11.9812 7.51884C12.3483 7.88596 12.5983 8.35369 12.6996 8.86289C12.8009 9.37209 12.7489 9.89989 12.5502 10.3795C12.3515 10.8592 12.0151 11.2692 11.5834 11.5576C11.1517 11.846 10.6442 12 10.125 12C9.42881 12 8.76113 11.7234 8.26885 11.2312C7.77657 10.7389 7.5 10.0712 7.5 9.375ZM16.3125 14.9944C15.5833 14.0669 14.6539 13.3164 13.5938 12.7987C14.2694 12.1146 14.7276 11.2458 14.9108 10.3019C15.0939 9.35788 14.9938 8.38083 14.623 7.49361C14.2523 6.6064 13.6274 5.84864 12.827 5.31568C12.0267 4.78271 11.0866 4.49834 10.125 4.49834C9.16343 4.49834 8.22333 4.78271 7.42297 5.31568C6.62262 5.84864 5.99775 6.6064 5.62698 7.49361C5.25621 8.38083 5.1561 9.35788 5.33924 10.3019C5.52239 11.2458 5.98061 12.1146 6.65625 12.7987C5.5961 13.3164 4.66668 14.0669 3.9375 14.9944C3.02161 13.8333 2.45114 12.4379 2.2914 10.9677C2.13165 9.49754 2.3891 8.01211 3.03425 6.68144C3.67941 5.35078 4.6862 4.22866 5.93939 3.44355C7.19257 2.65843 8.6415 2.24203 10.1203 2.24203C11.5991 2.24203 13.0481 2.65843 14.3012 3.44355C15.5544 4.22866 16.5612 5.35078 17.2064 6.68144C17.8515 8.01211 18.109 9.49754 17.9492 10.9677C17.7895 12.4379 17.219 13.8333 16.3031 14.9944H16.3125Z" fill="black"/>
</svg>
