<svg width="23" height="21" viewBox="0 0 23 21" fill="none" xmlns="http://www.w3.org/2000/svg">
<path d="M9.375 18.375C9.375 18.7458 9.26503 19.1084 9.059 19.4167C8.85298 19.725 8.56014 19.9654 8.21753 20.1073C7.87492 20.2492 7.49792 20.2863 7.1342 20.214C6.77049 20.1416 6.4364 19.963 6.17417 19.7008C5.91195 19.4386 5.73337 19.1045 5.66103 18.7408C5.58868 18.3771 5.62581 18.0001 5.76773 17.6575C5.90964 17.3149 6.14996 17.022 6.45831 16.816C6.76665 16.61 7.12916 16.5 7.5 16.5C7.99728 16.5 8.47419 16.6975 8.82582 17.0492C9.17745 17.4008 9.375 17.8777 9.375 18.375ZM17.25 16.5C16.8792 16.5 16.5166 16.61 16.2083 16.816C15.9 17.022 15.6596 17.3149 15.5177 17.6575C15.3758 18.0001 15.3387 18.3771 15.411 18.7408C15.4834 19.1045 15.662 19.4386 15.9242 19.7008C16.1864 19.963 16.5205 20.1416 16.8842 20.214C17.2479 20.2863 17.6249 20.2492 17.9675 20.1073C18.3101 19.9654 18.603 19.725 18.809 19.4167C19.015 19.1084 19.125 18.7458 19.125 18.375C19.125 17.8777 18.9275 17.4008 18.5758 17.0492C18.2242 16.6975 17.7473 16.5 17.25 16.5ZM22.0753 5.20594L19.5169 13.5216C19.3535 14.0593 19.0211 14.5301 18.569 14.864C18.1169 15.1979 17.5692 15.3771 17.0072 15.375H7.77469C7.2046 15.3732 6.65046 15.1866 6.1953 14.8433C5.74015 14.5001 5.40848 14.0186 5.25 13.4709L2.04469 2.25H1.125C0.826631 2.25 0.540483 2.13147 0.329505 1.9205C0.118526 1.70952 0 1.42337 0 1.125C0 0.826631 0.118526 0.540483 0.329505 0.329505C0.540483 0.118526 0.826631 0 1.125 0H2.32687C2.73407 0.00125797 3.12988 0.134515 3.45493 0.379779C3.77998 0.625044 4.01674 0.969093 4.12969 1.36031L4.81312 3.75H21C21.1761 3.74999 21.3497 3.7913 21.5069 3.87061C21.664 3.94992 21.8004 4.06501 21.905 4.20664C22.0096 4.34826 22.0795 4.51246 22.1091 4.68602C22.1387 4.85958 22.1271 5.03766 22.0753 5.20594ZM19.4766 6H5.45531L7.41375 12.8531C7.43617 12.9315 7.48354 13.0005 7.54867 13.0495C7.6138 13.0986 7.69315 13.1251 7.77469 13.125H17.0072C17.0875 13.1252 17.1656 13.0996 17.2303 13.052C17.2949 13.0044 17.3426 12.9373 17.3662 12.8606L19.4766 6Z" fill="black"/>
</svg>
