<svg width="21" height="17" viewBox="0 0 21 17" fill="none" xmlns="http://www.w3.org/2000/svg">
<path d="M12.1211 0.443359C12.9979 0.0925405 13.9592 0.00852311 14.8838 0.201172C15.8082 0.393885 16.6557 0.854624 17.3193 1.52637L17.3486 1.55664H17.3906C17.7296 1.55426 18.0806 1.59738 18.498 1.53809C18.882 1.48352 19.3278 1.34203 19.915 1.00977C19.6091 2.49447 19.4324 3.16729 18.7646 4.08301L18.7451 4.10938V4.14258C18.7451 7.9414 17.5781 10.7564 15.8262 12.7393C14.0729 14.7234 11.7275 15.8816 9.3623 16.3535C7.7452 16.6761 5.754 16.5731 3.99609 16.2109C3.11794 16.03 2.30096 15.7842 1.62012 15.4971C1.03699 15.2511 0.560061 14.9759 0.229492 14.6885C0.6606 14.6463 1.41195 14.553 2.24414 14.3594C3.24389 14.1267 4.37194 13.749 5.20312 13.1406L5.31934 13.0557L5.19922 12.9766C4.50766 12.5207 2.81165 11.4984 1.73145 9.5166C0.667008 7.56375 0.19288 4.66296 1.91406 0.425781C3.57929 2.34325 5.27273 3.66041 6.99512 4.36719C7.57627 4.60556 7.94226 4.72333 8.23145 4.79102C8.51953 4.85841 8.73223 4.8754 8.99219 4.91113L9.28711 4.95215L9.10742 4.77148C9.13232 3.84188 9.4255 2.93867 9.9541 2.17285C10.4906 1.3958 11.2444 0.794138 12.1211 0.443359ZM13.9053 1.90137C13.119 1.90124 12.3638 2.20994 11.8027 2.76074C11.3119 3.24267 11.0038 3.87627 10.9248 4.55371L10.9053 4.84668L10.877 6.4209C10.8756 6.49137 10.8592 6.56125 10.8291 6.625C10.799 6.6887 10.7556 6.74517 10.7021 6.79102C10.6487 6.83684 10.5861 6.87164 10.5186 6.8916C10.4511 6.91147 10.3802 6.91658 10.3105 6.90723L8.74902 6.69531C6.71753 6.41828 4.7663 5.48248 2.88965 3.91895L2.75781 3.80859L2.72754 3.97754C2.42573 5.64812 2.56793 7.0709 3.14746 8.30176C3.72674 9.53198 4.73875 10.5607 6.15625 11.4521L7.90234 12.5498C7.97145 12.5932 8.02959 12.6529 8.07031 12.7236C8.11103 12.7944 8.1339 12.8744 8.13672 12.9561C8.13951 13.0377 8.12173 13.1189 8.08594 13.1924C8.05014 13.2658 7.99667 13.3299 7.93066 13.3779L6.33887 14.541L6.11523 14.7041L6.3916 14.7207C7.34472 14.7801 8.25319 14.738 9.00977 14.5879C11.3887 14.1129 13.375 12.9789 14.7656 11.2207C16.1559 9.46269 16.9453 7.08826 16.9453 4.14258C16.9453 3.99705 16.8715 3.78499 16.7441 3.55762C16.6144 3.32598 16.4211 3.06491 16.167 2.82031C15.6584 2.33085 14.8999 1.90145 13.9053 1.90137Z" fill="black" stroke="white" stroke-width="0.2"/>
</svg>
