<svg width="21" height="16" viewBox="0 0 21 16" fill="none" xmlns="http://www.w3.org/2000/svg">
<path d="M19.6198 6.712C20.0938 7.332 20.0938 8.169 19.6198 8.788C18.1268 10.737 14.5448 14.75 10.3628 14.75C6.1808 14.75 2.5988 10.737 1.1058 8.788C0.875187 8.49113 0.75 8.12592 0.75 7.75C0.75 7.37408 0.875187 7.00887 1.1058 6.712C2.5988 4.763 6.1808 0.75 10.3628 0.75C14.5448 0.75 18.1268 4.763 19.6198 6.712V6.712Z" stroke="black" stroke-width="1.5" stroke-linecap="round" stroke-linejoin="round"/>
<path d="M10.3628 10.75C12.0196 10.75 13.3628 9.40685 13.3628 7.75C13.3628 6.09315 12.0196 4.75 10.3628 4.75C8.70594 4.75 7.36279 6.09315 7.36279 7.75C7.36279 9.40685 8.70594 10.75 10.3628 10.75Z" stroke="black" stroke-width="1.5" stroke-linecap="round" stroke-linejoin="round"/>
</svg>
